<svg id="Capa_1" enable-background="new 0 0 497 497" height="512" viewBox="0 0 497 497" width="512" xmlns="http://www.w3.org/2000/svg"><g><path d="m400.667 308.419-140.282 182.708-11.885-491.127c105.901 0 191.75 85.849 191.75 191.75 0 43.901-14.764 84.347-39.583 116.669z" fill="#ca3d44"/><path d="m410.25 191.75c0 43.901-12.302 84.347-32.981 116.669l-116.884 182.708c-2.742 3.565-7.039 5.873-11.885 5.873s-9.143-2.308-11.885-5.873l-140.282-182.708c-24.819-32.322-39.583-72.768-39.583-116.669 0-105.901 85.849-191.75 191.75-191.75 89.332 0 161.75 85.849 161.75 191.75z" fill="#ff3a33"/><path d="m248.5 56.75v270c74.558 0 135-60.442 135-135s-60.442-135-135-135z" fill="#d6f9fa"/><path d="m248.5 56.75c-74.558 0-135 60.442-135 135s60.442 135 135 135c57.99 0 105-60.442 105-135s-47.01-135-105-135z" fill="#fff"/><path d="m178.617 197.774c-10.981-3.896-22.8-6.024-35.117-6.024 0 57.984 47 104.989 104.981 105z" fill="#bee070"/><path d="m248.5 296.75c-.001-45.674-29.165-84.528-69.883-98.976 2.082 55.177 32.561 98.961 69.883 98.976z" fill="#7ed65f"/><path d="m318.383 197.774-69.873 98.976c57.986-.005 104.99-47.013 104.99-105-12.317 0-24.136 2.128-35.117 6.024z" fill="#39aa59"/><path d="m318.383 197.774c-40.718 14.448-69.882 53.302-69.883 98.973 37.317-.005 67.801-43.791 69.883-98.973z" fill="#3dcc4e"/></g></svg>